<svg width="114" height="1646" viewBox="0 0 114 1646" fill="none" xmlns="http://www.w3.org/2000/svg">
<path d="M85 71.7727C88.0682 71.7727 91.1222 71.2614 94.1619 70.2386C97.2017 69.2443 99.9716 67.6818 102.472 65.5511C104.972 63.4205 106.974 60.679 108.48 57.3267C109.986 54.0028 110.739 50.0114 110.739 45.3523C110.739 39.4432 109.105 33.6903 105.838 28.0937C102.571 22.5256 97.7983 17.6818 91.5199 13.5625C85.2699 9.47159 77.642 6.65909 68.6364 5.125C60.1705 3.70454 52.7841 3.81818 46.4773 5.46591C40.1705 7.11363 35.2699 10.1676 31.7756 14.6278C28.2812 19.1165 26.5341 24.8693 26.5341 31.8864C26.5341 37.8807 27.9972 43.4631 30.9233 48.6335C33.8494 53.8324 38.0256 58.2216 43.4517 61.8011C48.8778 65.3807 55.3409 67.7386 62.8409 68.875L61.8182 69.8977L61.8182 38.5341L64.5455 39.0455L64.5455 71.9432L61.8182 71.4318C53.8636 70.125 47.0455 67.5398 41.3636 63.6761C35.7102 59.8409 31.3636 55.125 28.3239 49.5284C25.3125 43.9602 23.8068 37.9091 23.8068 31.375C23.8068 23.9886 25.6818 17.8665 29.4318 13.0085C33.1818 8.17897 38.4233 4.8267 45.1562 2.9517C51.8892 1.0767 59.7159 0.892042 68.6364 2.39772C75.3409 3.47727 81.4347 5.33807 86.9176 7.98011C92.4006 10.6222 97.1165 13.8608 101.065 17.696C105.043 21.5597 108.097 25.8778 110.227 30.6506C112.386 35.4233 113.466 40.4943 113.466 45.8636C113.466 51.0341 112.585 55.4375 110.824 59.0739C109.062 62.7102 106.747 65.6648 103.878 67.9375C101.037 70.2386 97.9545 71.9148 94.6307 72.9659C91.3352 74.017 88.125 74.5284 85 74.5L85 71.7727ZM25 92.7301L90.4545 103.639L90.4545 106.366L80.0568 104.662L80.0568 105.003C83.4659 107.048 86.1932 110.003 88.2386 113.866C90.2841 117.759 91.3068 121.963 91.3068 126.48C91.3068 126.821 91.3068 127.048 91.3068 127.162C91.3068 127.276 91.3068 127.503 91.3068 127.844L88.5795 127.332C88.5795 126.991 88.5795 126.764 88.5795 126.651C88.5795 126.537 88.5795 126.31 88.5795 125.969C88.5795 122.105 87.7415 118.526 86.0653 115.23C84.3892 111.963 82.0739 109.222 79.1193 107.006C76.1648 104.818 72.7841 103.412 68.9773 102.787L25 95.4574L25 92.7301ZM23.6364 158.943C23.6364 153.773 25.1278 149.369 28.1108 145.733C31.0937 142.125 35.1704 139.54 40.3409 137.977C45.5114 136.443 51.3636 136.216 57.8977 137.295C64.2614 138.375 69.9716 140.506 75.0284 143.687C80.1136 146.898 84.1193 150.761 87.0455 155.278C90 159.824 91.4773 164.625 91.4773 169.682C91.4773 174.909 89.9716 179.327 86.9602 182.935C83.9489 186.571 79.8579 189.156 74.6875 190.69C69.517 192.253 63.6932 192.523 57.2159 191.5C50.8523 190.42 45.1278 188.276 40.0426 185.065C34.9858 181.855 30.9801 177.977 28.0256 173.432C25.0994 168.886 23.6364 164.057 23.6364 158.943ZM26.3636 158.943C26.3636 163.659 27.7273 168.105 30.4545 172.281C33.2102 176.457 36.9602 180.009 41.7045 182.935C46.4773 185.861 51.875 187.807 57.8977 188.773C63.75 189.739 69.0057 189.554 73.6648 188.219C78.3239 186.884 82.0028 184.625 84.7017 181.443C87.4006 178.261 88.75 174.398 88.75 169.852C88.75 165.193 87.3579 160.776 84.5739 156.599C81.8182 152.423 78.054 148.858 73.2812 145.903C68.5369 142.949 63.1818 140.989 57.2159 140.023C51.3636 139 46.1079 139.156 41.4489 140.491C36.7898 141.855 33.1108 144.128 30.4119 147.31C27.7131 150.52 26.3636 154.398 26.3636 158.943ZM25 223.004L90.4545 214.482L90.4545 217.209L28.75 225.22L28.75 225.561L90.4545 254.197L90.4545 256.925L28.75 265.107L28.75 265.447L90.4545 293.913L90.4545 296.982L25 266.641L25 262.891L85.1704 254.879L85.1704 254.538L25 226.754L25 223.004ZM112.273 356.57L112.273 359.638L69.4886 381.627L69.4886 382.138L112.273 418.445L112.273 422.025L66.4204 382.991L25 376.173L25 373.445L66.4204 380.263L112.273 356.57ZM23.6363 443.099C23.6363 437.929 25.1278 433.526 28.1108 429.889C31.0937 426.281 35.1704 423.696 40.3409 422.134C45.5113 420.599 51.3636 420.372 57.8977 421.452C64.2613 422.531 69.9716 424.662 75.0284 427.844C80.1136 431.054 84.1193 434.918 87.0454 439.435C90 443.98 91.4773 448.781 91.4773 453.838C91.4773 459.065 89.9716 463.483 86.9602 467.091C83.9488 470.727 79.8579 473.312 74.6875 474.847C69.517 476.409 63.6932 476.679 57.2159 475.656C50.8523 474.577 45.1278 472.432 40.0426 469.222C34.9858 466.011 30.9801 462.134 28.0255 457.588C25.0994 453.043 23.6363 448.213 23.6363 443.099ZM26.3636 443.099C26.3636 447.815 27.7273 452.261 30.4545 456.437C33.2102 460.614 36.9602 464.165 41.7045 467.091C46.4773 470.017 51.875 471.963 57.8977 472.929C63.75 473.895 69.0057 473.71 73.6648 472.375C78.3238 471.04 82.0028 468.781 84.7017 465.599C87.4005 462.418 88.75 458.554 88.75 454.009C88.75 449.349 87.3579 444.932 84.5738 440.756C81.8182 436.58 78.054 433.014 73.2812 430.06C68.5369 427.105 63.1818 425.145 57.2159 424.179C51.3636 423.156 46.1079 423.312 41.4488 424.648C36.7898 426.011 33.1108 428.284 30.4119 431.466C27.713 434.676 26.3636 438.554 26.3636 443.099ZM46.4772 541.262L90.4545 548.592L90.4545 551.319L25 540.41L25 537.683L35.3977 539.387L35.3977 539.046C31.9886 537.001 29.2613 534.032 27.2159 530.14C25.1704 526.276 24.1477 522.086 24.1477 517.569C24.1477 513.194 25.0994 509.487 27.0028 506.447C28.9062 503.407 31.5341 501.219 34.8863 499.884C38.2386 498.549 42.1023 498.251 46.4773 498.989L90.4545 506.319L90.4545 509.046L46.4773 501.717C40.6818 500.779 35.9659 501.816 32.3295 504.827C28.6932 507.867 26.875 512.285 26.875 518.08C26.875 521.944 27.713 525.509 29.3892 528.776C31.0653 532.072 33.3807 534.813 36.3352 537.001C39.2897 539.217 42.6704 540.637 46.4772 541.262ZM25 569.613L90.4545 580.522L90.4545 583.249L80.0568 581.545L80.0568 581.886C83.4659 583.931 86.1932 586.886 88.2386 590.749C90.2841 594.641 91.3068 598.846 91.3068 603.363C91.3068 603.704 91.3068 603.931 91.3068 604.045C91.3068 604.158 91.3068 604.386 91.3068 604.727L88.5795 604.215C88.5795 603.874 88.5795 603.647 88.5795 603.533C88.5795 603.42 88.5795 603.192 88.5795 602.852C88.5795 598.988 87.7415 595.408 86.0653 592.113C84.3892 588.846 82.0738 586.104 79.1193 583.888C76.1647 581.701 72.7841 580.295 68.9772 579.67L25 572.34L25 569.613ZM25 656.432L112.273 670.92L112.273 698.193C112.273 703.08 111.378 707.114 109.588 710.295C107.827 713.506 105.284 715.75 101.96 717.028C98.6647 718.335 94.7159 718.591 90.1136 717.795C86.7045 717.227 83.5795 716.19 80.7386 714.685C77.8977 713.179 75.4971 711.276 73.5369 708.974C71.5767 706.673 70.2272 704.045 69.4886 701.091L69.1477 701.091C68.8636 704.216 67.7557 706.886 65.8238 709.102C63.892 711.318 61.3352 712.895 58.1534 713.832C54.9716 714.77 51.3636 714.898 47.3295 714.216C42.8409 713.477 38.9204 711.872 35.5682 709.401C32.2159 706.957 29.6164 703.79 27.7699 699.898C25.9233 696.034 25 691.602 25 686.602L25 656.432ZM27.7272 659.67L27.7272 687.114C27.7272 693.506 29.517 698.903 33.0966 703.307C36.7045 707.739 41.4488 710.466 47.3295 711.489C51.3636 712.17 54.9289 711.858 58.0255 710.551C61.1221 709.244 63.5511 707.142 65.3125 704.244C67.0738 701.347 67.9545 697.852 67.9545 693.761L67.9545 666.318L27.7272 659.67ZM70.6818 666.83L70.6818 694.273C70.6818 698.193 71.5767 701.602 73.3664 704.5C75.1562 707.398 77.5284 709.741 80.4829 711.531C83.4375 713.321 86.6477 714.5 90.1136 715.068C96.3352 716.091 101.122 715.04 104.474 711.915C107.855 708.818 109.545 704.074 109.545 697.682L109.545 673.136L70.6818 666.83ZM46.4772 783.114L90.4545 790.443L90.4545 793.17L25 782.261L25 779.534L35.3977 781.239L35.3977 780.898C31.9886 778.852 29.2613 775.884 27.2159 771.991C25.1704 768.128 24.1477 763.937 24.1477 759.42C24.1477 755.045 25.0994 751.338 27.0028 748.298C28.9062 745.259 31.5341 743.071 34.8863 741.736C38.2386 740.401 42.1022 740.102 46.4772 740.841L90.4545 748.17L90.4545 750.898L46.4772 743.568C40.6818 742.631 35.9659 743.668 32.3295 746.679C28.6931 749.719 26.875 754.136 26.875 759.932C26.875 763.795 27.713 767.361 29.3892 770.628C31.0653 773.923 33.3806 776.665 36.3352 778.852C39.2897 781.068 42.6704 782.489 46.4772 783.114ZM76.6477 859.192L76.1363 856.464C78.9772 856.01 81.321 855.158 83.1676 853.908C85.0426 852.658 86.4346 850.996 87.3437 848.922C88.2812 846.876 88.75 844.391 88.75 841.464C88.75 836.124 87.3721 831.592 84.6164 827.871C81.8608 824.149 78.2954 821.919 73.9204 821.18C70.5397 820.641 67.7272 821.251 65.4829 823.013C63.2386 824.803 61.5625 827.828 60.4545 832.089L57.8977 841.976C56.7045 846.578 54.6306 849.874 51.6761 851.862C48.75 853.879 45.2556 854.561 41.1931 853.908C37.642 853.339 34.5454 851.919 31.9034 849.646C29.2897 847.374 27.2585 844.49 25.8096 840.996C24.3608 837.53 23.6363 833.652 23.6363 829.362C23.6363 823.51 25.071 818.95 27.9403 815.683C30.8096 812.445 34.8863 810.697 40.1704 810.442L40.5113 813.169C35.9091 813.339 32.4005 814.803 29.9858 817.558C27.571 820.314 26.3636 824.249 26.3636 829.362C26.3636 835.158 27.7983 840.087 30.6676 844.149C33.5653 848.212 37.3011 850.612 41.875 851.351C45.2272 851.891 48.0255 851.294 50.2698 849.561C52.5142 847.828 54.1477 844.959 55.1704 840.953L57.7272 831.237C59.0056 826.379 61.1079 822.857 64.0341 820.669C66.9602 818.51 70.4829 817.771 74.6022 818.453C77.9829 819.021 80.9375 820.357 83.4659 822.459C85.9943 824.561 87.9545 827.232 89.3466 830.47C90.767 833.737 91.4772 837.345 91.4772 841.294C91.4772 846.436 90.213 850.513 87.6846 853.524C85.1846 856.536 81.5056 858.425 76.6477 859.192ZM25 876.985L90.4545 887.894L90.4545 890.621L25 879.712L25 876.985ZM102.386 891.388C102.386 890.536 102.685 889.854 103.281 889.343C103.878 888.86 104.602 888.69 105.455 888.832C106.051 888.945 106.591 889.286 107.074 889.854C107.585 890.423 107.841 891.048 107.841 891.729C107.841 892.582 107.543 893.249 106.946 893.732C106.349 894.244 105.625 894.428 104.773 894.286C104.148 894.173 103.594 893.832 103.111 893.263C102.628 892.695 102.386 892.07 102.386 891.388ZM68.9772 919.303L25 911.973L25 909.246L90.4545 920.155L90.4545 922.882L80.0568 921.178L80.0568 921.518C83.4659 923.564 86.1931 926.518 88.2386 930.382C90.284 934.274 91.3068 938.479 91.3068 942.996C91.3068 947.371 90.3551 951.078 88.4517 954.118C86.5483 957.158 83.9204 959.345 80.5681 960.68C77.2159 962.016 73.3522 962.314 68.9772 961.575L25 954.246L25 951.518L68.9772 958.848C74.7727 959.786 79.4886 958.791 83.125 955.865C86.7613 952.967 88.5795 948.621 88.5795 942.825C88.5795 938.962 87.7414 935.354 86.0653 932.001C84.3892 928.678 82.0738 925.879 79.1193 923.607C76.1647 921.362 72.7841 919.928 68.9772 919.303ZM23.6363 1007.82C23.6363 1002.09 25.1278 997.327 28.1108 993.548C31.0937 989.77 35.142 987.128 40.2556 985.622C45.3693 984.116 51.1363 983.903 57.5568 984.983C63.9772 986.062 69.7443 988.207 74.8579 991.418C79.9715 994.628 84.0198 998.52 87.0028 1003.09C89.9858 1007.67 91.4772 1012.54 91.4772 1017.71C91.4772 1021.52 90.6534 1024.9 89.0056 1027.85C87.3863 1030.84 85.142 1033.29 82.2727 1035.22C79.4318 1037.18 76.1363 1038.53 72.3863 1039.27C68.6647 1040.01 64.6875 1040.04 60.4545 1039.36L57.7272 1038.85L57.7272 986.347L60.4545 986.858L60.4545 1036.63C65.6818 1037.48 70.4261 1037.21 74.6875 1035.82C78.9772 1034.46 82.3863 1032.2 84.9147 1029.05C87.4715 1025.92 88.75 1022.14 88.75 1017.71C88.75 1013.22 87.4147 1008.9 84.7443 1004.76C82.0738 1000.61 78.4375 997.028 73.8352 994.017C69.2329 991.006 64.0341 988.96 58.2386 987.881L58.0681 987.71C52.3295 986.744 47.0596 986.844 42.2585 988.009C37.4573 989.173 33.6079 991.418 30.7102 994.741C27.8125 998.065 26.3636 1002.48 26.3636 1007.99C26.3636 1011.97 27.0738 1015.47 28.4943 1018.48C29.9147 1021.52 31.5483 1024.05 33.3948 1026.06C35.2414 1028.11 36.8181 1029.64 38.125 1030.66L36.5909 1032.54C34.9431 1031.35 33.1108 1029.63 31.0937 1027.38C29.0767 1025.14 27.3295 1022.38 25.8522 1019.12C24.375 1015.85 23.6363 1012.09 23.6363 1007.82ZM76.6477 1106.43L76.1363 1103.71C78.9772 1103.25 81.321 1102.4 83.1676 1101.15C85.0426 1099.9 86.4346 1098.24 87.3437 1096.16C88.2812 1094.12 88.75 1091.63 88.75 1088.71C88.75 1083.37 87.3721 1078.83 84.6164 1075.11C81.8608 1071.39 78.2954 1069.16 73.9204 1068.42C70.5397 1067.88 67.7272 1068.49 65.4829 1070.25C63.2386 1072.04 61.5625 1075.07 60.4545 1079.33L57.8977 1089.22C56.7045 1093.82 54.6306 1097.12 51.6761 1099.1C48.75 1101.12 45.2556 1101.8 41.1931 1101.15C37.642 1100.58 34.5454 1099.16 31.9034 1096.89C29.2897 1094.62 27.2585 1091.73 25.8096 1088.24C24.3607 1084.77 23.6363 1080.89 23.6363 1076.6C23.6363 1070.75 25.071 1066.19 27.9403 1062.93C30.8096 1059.69 34.8863 1057.94 40.1704 1057.68L40.5113 1060.41C35.909 1060.58 32.4005 1062.04 29.9857 1064.8C27.571 1067.56 26.3636 1071.49 26.3636 1076.6C26.3636 1082.4 27.7982 1087.33 30.6676 1091.39C33.5653 1095.45 37.3011 1097.85 41.875 1098.59C45.2272 1099.13 48.0255 1098.54 50.2698 1096.8C52.5142 1095.07 54.1477 1092.2 55.1704 1088.2L57.7272 1078.48C59.0056 1073.62 61.1079 1070.1 64.034 1067.91C66.9602 1065.75 70.4829 1065.01 74.6022 1065.7C77.9829 1066.26 80.9375 1067.6 83.4659 1069.7C85.9943 1071.8 87.9545 1074.47 89.3465 1077.71C90.767 1080.98 91.4772 1084.59 91.4772 1088.54C91.4772 1093.68 90.213 1097.75 87.6846 1100.77C85.1846 1103.78 81.5056 1105.67 76.6477 1106.43ZM76.6477 1171.61L76.1363 1168.89C78.9772 1168.43 81.321 1167.58 83.1676 1166.33C85.0426 1165.08 86.4346 1163.42 87.3437 1161.34C88.2812 1159.3 88.7499 1156.81 88.7499 1153.89C88.7499 1148.55 87.3721 1144.01 84.6164 1140.29C81.8607 1136.57 78.2954 1134.34 73.9204 1133.6C70.5397 1133.06 67.7272 1133.67 65.4829 1135.43C63.2386 1137.22 61.5625 1140.25 60.4545 1144.51L57.8977 1154.4C56.7045 1159 54.6306 1162.3 51.6761 1164.28C48.7499 1166.3 45.2556 1166.98 41.1931 1166.33C37.642 1165.76 34.5454 1164.34 31.9034 1162.07C29.2897 1159.8 27.2585 1156.91 25.8096 1153.42C24.3607 1149.95 23.6363 1146.07 23.6363 1141.78C23.6363 1135.93 25.071 1131.37 27.9403 1128.11C30.8096 1124.87 34.8863 1123.12 40.1704 1122.86L40.5113 1125.59C35.909 1125.76 32.4005 1127.22 29.9857 1129.98C27.571 1132.74 26.3636 1136.67 26.3636 1141.78C26.3636 1147.58 27.7982 1152.51 30.6676 1156.57C33.5653 1160.63 37.3011 1163.03 41.8749 1163.77C45.2272 1164.31 48.0255 1163.72 50.2698 1161.98C52.5142 1160.25 54.1477 1157.38 55.1704 1153.37L57.7272 1143.66C59.0056 1138.8 61.1079 1135.28 64.034 1133.09C66.9602 1130.93 70.4829 1130.19 74.6022 1130.87C77.9829 1131.44 80.9375 1132.78 83.4659 1134.88C85.9943 1136.98 87.9545 1139.65 89.3465 1142.89C90.767 1146.16 91.4772 1149.77 91.4772 1153.72C91.4772 1158.86 90.213 1162.93 87.6846 1165.95C85.1846 1168.96 81.5056 1170.85 76.6477 1171.61ZM24.9999 1229.16L90.4545 1240.07L90.4545 1242.79L24.9999 1231.88L24.9999 1229.16ZM102.386 1243.56C102.386 1242.71 102.685 1242.03 103.281 1241.51C103.878 1241.03 104.602 1240.86 105.454 1241C106.051 1241.12 106.591 1241.46 107.074 1242.03C107.585 1242.59 107.841 1243.22 107.841 1243.9C107.841 1244.75 107.543 1245.42 106.946 1245.9C106.349 1246.42 105.625 1246.6 104.773 1246.46C104.148 1246.34 103.594 1246 103.111 1245.44C102.628 1244.87 102.386 1244.24 102.386 1243.56ZM68.9772 1271.47L24.9999 1264.14L24.9999 1261.42L90.4545 1272.33L90.4545 1275.05L80.0568 1273.35L80.0568 1273.69C83.4659 1275.74 86.1931 1278.69 88.2386 1282.55C90.284 1286.45 91.3068 1290.65 91.3068 1295.17C91.3068 1299.54 90.3551 1303.25 88.4517 1306.29C86.5482 1309.33 83.9204 1311.52 80.5681 1312.85C77.2159 1314.19 73.3522 1314.49 68.9772 1313.75L24.9999 1306.42L24.9999 1303.69L68.9772 1311.02C74.7727 1311.96 79.4886 1310.96 83.1249 1308.04C86.7613 1305.14 88.5795 1300.79 88.5795 1295C88.5795 1291.13 87.7414 1287.53 86.0653 1284.17C84.3892 1280.85 82.0738 1278.05 79.1193 1275.78C76.1647 1273.53 72.784 1272.1 68.9772 1271.47ZM76.6477 1423.1L76.1363 1420.37C78.9772 1419.92 81.321 1419.06 83.1676 1417.81C85.0426 1416.56 86.4346 1414.9 87.3437 1412.83C88.2812 1410.78 88.7499 1408.3 88.7499 1405.37C88.7499 1400.03 87.3721 1395.5 84.6164 1391.78C81.8607 1388.06 78.2954 1385.83 73.9204 1385.09C70.5397 1384.55 67.7272 1385.16 65.4829 1386.92C63.2386 1388.71 61.5624 1391.73 60.4545 1396L57.8977 1405.88C56.7045 1410.48 54.6306 1413.78 51.6761 1415.77C48.7499 1417.79 45.2556 1418.47 41.1931 1417.81C37.642 1417.25 34.5454 1415.83 31.9033 1413.55C29.2897 1411.28 27.2585 1408.4 25.8096 1404.9C24.3607 1401.44 23.6363 1397.56 23.6363 1393.27C23.6363 1387.42 25.071 1382.86 27.9403 1379.59C30.8096 1376.35 34.8863 1374.6 40.1704 1374.35L40.5113 1377.08C35.909 1377.25 32.4005 1378.71 29.9857 1381.46C27.571 1384.22 26.3636 1388.15 26.3636 1393.27C26.3636 1399.06 27.7982 1403.99 30.6676 1408.06C33.5653 1412.12 37.3011 1414.52 41.8749 1415.26C45.2272 1415.8 48.0255 1415.2 50.2698 1413.47C52.5141 1411.73 54.1477 1408.87 55.1704 1404.86L57.7272 1395.14C59.0056 1390.29 61.1079 1386.76 64.034 1384.58C66.9602 1382.42 70.4829 1381.68 74.6022 1382.36C77.9829 1382.93 80.9374 1384.26 83.4659 1386.37C85.9943 1388.47 87.9545 1391.14 89.3465 1394.38C90.767 1397.64 91.4772 1401.25 91.4772 1405.2C91.4772 1410.34 90.213 1414.42 87.6846 1417.43C85.1846 1420.44 81.5056 1422.33 76.6477 1423.1ZM90.4545 1471.91L87.7272 1471.4L87.7272 1445.49L90.4545 1446L90.4545 1471.91ZM106.136 1458.11L106.136 1460.83L38.8068 1449.75C36.2499 1449.3 34.0482 1449.49 32.2016 1450.31C30.3835 1451.13 28.9772 1452.4 27.9829 1454.1C27.017 1455.81 26.534 1457.77 26.534 1459.98C26.534 1460.75 26.605 1461.49 26.7471 1462.2C26.9175 1462.94 27.1306 1463.73 27.3863 1464.58L24.8295 1464.93C24.4886 1463.99 24.2329 1463.09 24.0624 1462.24C23.892 1461.42 23.8068 1460.49 23.8068 1459.47C23.8068 1456.8 24.4175 1454.43 25.6391 1452.35C26.8607 1450.31 28.5937 1448.77 30.838 1447.75C33.0823 1446.76 35.7386 1446.52 38.8068 1447.03L106.136 1458.11ZM0.454478 1487.16C0.454479 1486.05 0.610729 1484.9 0.92323 1483.71C1.20732 1482.54 1.61925 1481.37 2.15902 1480.17L4.54539 1481.54C3.3238 1484.04 2.91187 1486.47 3.30959 1488.82C3.67891 1491.21 4.80107 1493.45 6.67607 1495.56C8.52266 1497.66 11.0511 1499.55 14.2613 1501.22L23.9772 1506.34L90.4545 1493.72L90.4545 1496.45L28.409 1508.3L28.409 1508.64L90.4545 1541.11L90.4545 1544.18L13.0681 1503.7C10.3124 1502.25 7.99709 1500.63 6.12209 1498.84C4.24709 1497.08 2.84084 1495.2 1.90334 1493.21C0.937433 1491.22 0.454478 1489.21 0.454478 1487.16ZM112.273 1574.18L24.9999 1559.69L24.9999 1556.96L112.273 1571.45L112.273 1574.18ZM23.6363 1613.24C23.6363 1607.5 25.1278 1602.74 28.1107 1598.96C31.0937 1595.18 35.142 1592.54 40.2556 1591.04C45.3692 1589.53 51.1363 1589.32 57.5567 1590.4C63.9772 1591.48 69.7442 1593.62 74.8579 1596.83C79.9715 1600.04 84.0198 1603.93 87.0028 1608.51C89.9857 1613.08 91.4772 1617.95 91.4772 1623.12C91.4772 1626.93 90.6533 1630.31 89.0056 1633.27C87.3863 1636.25 85.142 1638.71 82.2727 1640.64C79.4317 1642.6 76.1363 1643.95 72.3863 1644.69C68.6647 1645.43 64.6874 1645.45 60.4545 1644.77L57.7272 1644.26L57.7272 1591.76L60.4545 1592.27L60.4545 1642.04C65.6817 1642.9 70.4261 1642.63 74.6874 1641.24C78.9772 1639.87 82.3863 1637.61 84.9147 1634.46C87.4715 1631.33 88.7499 1627.56 88.7499 1623.12C88.7499 1618.64 87.4147 1614.32 84.7443 1610.17C82.0738 1606.02 78.4374 1602.44 73.8352 1599.43C69.2329 1596.42 64.034 1594.37 58.2386 1593.29L58.0681 1593.12C52.3295 1592.16 47.0596 1592.26 42.2585 1593.42C37.4573 1594.59 33.6079 1596.83 30.7102 1600.16C27.8124 1603.48 26.3636 1607.9 26.3636 1613.41C26.3636 1617.39 27.0738 1620.88 28.4942 1623.89C29.9147 1626.93 31.5482 1629.46 33.3948 1631.48C35.2414 1633.52 36.8181 1635.06 38.1249 1636.08L36.5908 1637.95C34.9431 1636.76 33.1107 1635.04 31.0937 1632.8C29.0766 1630.55 27.3295 1627.8 25.8522 1624.53C24.3749 1621.26 23.6363 1617.5 23.6363 1613.24Z" fill="black"/>
</svg>
